<svg version="1.1" id="Layer_1_1_" xmlns="http://www.w3.org/2000/svg" xmlns:xlink="http://www.w3.org/1999/xlink" x="0px" y="0px" viewBox="0 0 64 64" style="enable-background:new 0 0 64 64;" xml:space="preserve">
<rect x="44" y="56" width="18" height="2" id="id_161" style="fill: rgb(26, 0, 255); --darkreader-inline-fill:#311aff;" data-darkreader-inline-fill=""></rect>
<rect x="2" y="56" width="17" height="2" id="id_162" style="fill: rgb(38, 0, 255); --darkreader-inline-fill:#3c1aff;" data-darkreader-inline-fill=""></rect>
<path d="M50.848,51.012C42.35,52.321,35.999,56.334,32,59.686c-3.999-3.352-10.35-7.365-18.848-8.674
	c-3.717-0.571-7.519-0.573-11.302,0l0.299,1.977c3.58-0.541,7.181-0.541,10.698,0c7.039,1.084,12.527,4.135,16.334,7.012H2v2h60v-2
	H34.818c3.807-2.877,9.296-5.928,16.334-7.012c3.519-0.541,7.117-0.541,10.698,0l0.299-1.977
	C58.368,50.438,54.566,50.439,50.848,51.012z" id="id_163" style="fill: rgb(94, 0, 245); --darkreader-inline-fill:#7621ff;" data-darkreader-inline-fill=""></path>
<path d="M40.471,19.093c0.02-0.164,0.029-0.324,0.029-0.484c0-2.717-2.318-4.928-5.167-4.928c-0.892,0-1.743,0.224-2.496,0.626
	h-1.675c-0.753-0.402-1.604-0.626-2.496-0.626c-2.849,0-5.167,2.211-5.167,4.928c0,0.16,0.01,0.32,0.029,0.484
	C21.969,19.969,21,21.552,21,23.323c0,0.993,0.308,1.942,0.881,2.75C21.308,26.881,21,27.83,21,28.823
	c0,1.752,0.965,3.346,2.51,4.228c0.162,2.579,2.413,4.63,5.157,4.63c0.893,0,1.744-0.224,2.497-0.627h1.672
	c0.753,0.403,1.604,0.627,2.497,0.627c2.744,0,4.995-2.051,5.157-4.63c1.545-0.882,2.51-2.476,2.51-4.228
	c0-0.993-0.308-1.942-0.881-2.75C42.692,25.266,43,24.316,43,23.323C43,21.552,42.031,19.969,40.471,19.093z M31,27.98
	c-2.206,0-4,1.794-4,4h2c0-1.103,0.897-2,2-2v4.702c-0.602,0.628-1.428,0.998-2.333,0.998c-1.746,0-3.167-1.313-3.159-2.979
	c0.009-0.061,0.017-0.12,0.021-0.182c0.037-0.438-0.216-0.847-0.623-1.011C23.748,31.044,23,29.989,23,28.823
	c0-0.678,0.265-1.32,0.729-1.843H24c2.206,0,4-1.794,4-4h-2c0,1.103-0.897,2-2,2h-0.431C23.204,24.494,23,23.922,23,23.323
	c0-1.206,0.79-2.272,2.014-2.718c0.497-0.181,0.768-0.717,0.617-1.224c-0.09-0.301-0.131-0.546-0.131-0.773
	c0-1.614,1.421-2.928,3.167-2.928c0.905,0,1.731,0.37,2.333,0.997V27.98z M40.111,26.795C40.685,27.345,41,28.065,41,28.823
	c0,0.835-0.388,1.609-1.031,2.154C38.881,30.96,38,30.072,38,28.98h-2c0,1.671,1.031,3.102,2.49,3.699
	c0.003,0.023,0.006,0.042,0.01,0.072c0,1.615-1.421,2.929-3.167,2.929c-0.905,0-1.731-0.37-2.333-0.998V16.678
	c0.602-0.627,1.428-0.997,2.333-0.997c1.746,0,3.167,1.313,3.167,2.928c0,0.133-0.019,0.276-0.048,0.427
	C36.507,19.306,35,20.962,35,22.98h2c0-1.103,0.897-2,2-2h0.709c0.8,0.542,1.291,1.397,1.291,2.343c0,0.758-0.315,1.479-0.889,2.028
	c-0.196,0.189-0.308,0.449-0.308,0.722S39.915,26.605,40.111,26.795z" id="id_164" style="fill: rgb(111, 0, 255); --darkreader-inline-fill:#7d1aff;" data-darkreader-inline-fill=""></path>
<path d="M32,8.98c-9.374,0-17,7.626-17,17s7.626,17,17,17s17-7.626,17-17S41.374,8.98,32,8.98z M32,40.98c-8.271,0-15-6.729-15-15
	s6.729-15,15-15s15,6.729,15,15S40.271,40.98,32,40.98z" id="id_165" style="fill: rgb(184, 0, 245); --darkreader-inline-fill:#c821ff;" data-darkreader-inline-fill=""></path>
<path d="M53.725,14.125c-0.923-1.619-2.018-3.127-3.254-4.48c-0.242-0.266-0.611-0.383-0.957-0.302l-3.728,0.836
	c-0.799-0.696-1.651-1.334-2.546-1.902l-0.349-3.742c-0.034-0.357-0.256-0.67-0.583-0.818c-1.7-0.771-3.47-1.348-5.26-1.715
	c-0.355-0.072-0.715,0.05-0.952,0.319l-2.41,2.739c-1.146-0.092-2.228-0.092-3.372,0l-2.411-2.74
	c-0.237-0.269-0.596-0.391-0.952-0.318c-1.786,0.366-3.556,0.943-5.259,1.714c-0.327,0.148-0.55,0.461-0.584,0.818L20.76,8.276
	c-0.896,0.569-1.749,1.207-2.546,1.902l-3.727-0.836c-0.344-0.079-0.715,0.037-0.957,0.301c-1.234,1.352-2.329,2.859-3.254,4.479
	c-0.179,0.312-0.176,0.696,0.008,1.005l1.88,3.179l-0.48,2.908l-3.93,1.698c-0.33,0.143-0.558,0.451-0.598,0.808
	C7.053,24.659,7,25.591,7,26.49s0.053,1.831,0.156,2.769c0.04,0.356,0.268,0.665,0.598,0.808l4.096,1.771
	c0.214,0.745,0.459,1.458,0.732,2.13l-2.298,3.885c-0.184,0.309-0.187,0.692-0.009,1.004c0.923,1.619,2.018,3.127,3.254,4.48
	c0.241,0.265,0.609,0.379,0.957,0.302l4.665-1.046c0.46,0.353,0.959,0.7,1.509,1.05l0.448,4.805c0.034,0.357,0.256,0.67,0.583,0.818
	c1.7,0.771,3.47,1.348,5.26,1.715c0.356,0.072,0.715-0.05,0.952-0.319l3.259-3.703c0.555,0.037,1.121,0.037,1.676,0l3.259,3.703
	c0.192,0.219,0.467,0.34,0.751,0.34c0.066,0,0.134-0.007,0.201-0.021c1.788-0.366,3.558-0.943,5.26-1.715
	c0.327-0.148,0.549-0.461,0.583-0.818l0.447-4.804c0.552-0.351,1.051-0.698,1.511-1.051l4.663,1.046
	c0.347,0.08,0.716-0.036,0.957-0.302c1.236-1.354,2.331-2.861,3.255-4.48c0.178-0.312,0.175-0.695-0.009-1.005l-2.299-3.884
	c0.274-0.674,0.521-1.387,0.733-2.13l4.096-1.771c0.33-0.143,0.558-0.451,0.598-0.808C56.947,28.321,57,27.39,57,26.49
	s-0.053-1.831-0.156-2.769c-0.04-0.356-0.268-0.665-0.598-0.808l-3.779-1.634c-0.204-0.882-0.477-1.774-0.813-2.666l2.062-3.484
	C53.899,14.82,53.902,14.437,53.725,14.125z M49.685,18.015c-0.159,0.269-0.184,0.595-0.067,0.884
	c0.446,1.105,0.782,2.214,1.001,3.294c0.065,0.321,0.283,0.59,0.584,0.72l3.71,1.604C54.971,25.186,55,25.848,55,26.49
	s-0.029,1.305-0.088,1.974l-3.995,1.728c-0.282,0.122-0.492,0.366-0.57,0.663c-0.263,0.994-0.586,1.931-0.962,2.784
	c-0.13,0.296-0.109,0.635,0.055,0.913l2.256,3.811c-0.686,1.136-1.463,2.206-2.319,3.195l-4.554-1.021
	c-0.297-0.068-0.612,0.007-0.85,0.2c-0.604,0.49-1.292,0.97-2.104,1.466c-0.27,0.164-0.446,0.446-0.476,0.761l-0.439,4.712
	c-1.222,0.518-2.478,0.928-3.745,1.223l-3.194-3.631c-0.203-0.231-0.484-0.354-0.812-0.338l-0.321,0.021
	c-0.584,0.041-1.18,0.041-1.764,0l-0.321-0.021c-0.315-0.015-0.607,0.106-0.812,0.338l-3.194,3.631
	c-1.27-0.295-2.524-0.705-3.746-1.223l-0.439-4.712c-0.029-0.314-0.206-0.596-0.475-0.761c-0.809-0.494-1.497-0.974-2.104-1.467
	c-0.239-0.192-0.553-0.268-0.85-0.199l-4.555,1.021c-0.856-0.988-1.633-2.06-2.318-3.195l2.256-3.812
	c0.165-0.277,0.185-0.617,0.055-0.912c-0.375-0.85-0.698-1.786-0.962-2.783c-0.078-0.297-0.288-0.541-0.57-0.663l-3.995-1.728
	C9.029,27.795,9,27.133,9,26.49s0.029-1.305,0.088-1.975l3.89-1.682c0.312-0.135,0.535-0.419,0.59-0.755l0.629-3.806
	c0.039-0.232-0.006-0.47-0.126-0.672l-1.765-2.984c0.686-1.137,1.463-2.207,2.318-3.194l3.654,0.819
	c0.317,0.072,0.653-0.017,0.895-0.239c0.935-0.856,1.961-1.625,3.052-2.282c0.272-0.164,0.45-0.447,0.48-0.764l0.341-3.651
	c1.223-0.519,2.478-0.928,3.745-1.223l2.357,2.68c0.214,0.242,0.536,0.363,0.854,0.334c1.362-0.141,2.631-0.141,3.997,0
	c0.317,0.025,0.639-0.092,0.854-0.335l2.356-2.679c1.27,0.295,2.524,0.705,3.745,1.223l0.341,3.651c0.03,0.316,0.208,0.6,0.48,0.764
	c1.089,0.656,2.115,1.425,3.052,2.283c0.24,0.223,0.577,0.312,0.895,0.239l3.655-0.82c0.856,0.988,1.633,2.06,2.318,3.195
	L49.685,18.015z" id="id_166" style="fill: rgb(37, 0, 245); --darkreader-inline-fill:#4221ff;" data-darkreader-inline-fill=""></path>
</svg>