<svg width="64" height="64" viewBox="0 0 64 64" fill="none" xmlns="http://www.w3.org/2000/svg">
<path d="M16 16.85V14H21.3C21.0984 14.6474 20.9972 15.3219 21 16V22C20.9994 22.4382 21.0295 22.876 21.09 23.31C20.4124 23.1043 19.7081 22.9998 19 23C18.6654 22.9977 18.3311 23.0211 18 23.07V19.24C17.1818 18.5835 16.502 17.7711 16 16.85Z" fill="#8000ff" id="id_262" data-darkreader-inline-fill="" style="--darkreader-inline-fill:#6600cc;"></path>
<path d="M33.14 38.4901L27.49 44.1401L24.91 41.5701C24.294 41.8836 23.6556 42.151 23 42.3701V46.0001H15V42.3701C14.3444 42.151 13.706 41.8836 13.09 41.5701L13 41.6601L10.51 44.1401L4.86 38.4901L7.43 35.9101C7.11651 35.294 6.84911 34.6556 6.63 34.0001H3V26.0001H6.63C6.84911 25.3445 7.11651 24.7061 7.43 24.0901L4.86 21.5101L9.31 17.0601C8.07963 19.9539 7.70547 23.1401 8.23191 26.2403C8.75836 29.3405 10.1633 32.2245 12.28 34.5501C12.5808 34.3289 12.8984 34.1317 13.23 33.9601C13.7003 34.652 14.2934 35.2519 14.98 35.7301C15.8136 36.3154 16.7649 36.7115 17.7675 36.8909C18.7701 37.0703 19.7998 37.0285 20.7846 36.7685C21.7693 36.5085 22.6854 36.0365 23.4688 35.3856C24.2522 34.7347 24.884 33.9206 25.32 33.0001C25.6771 32.2561 25.8941 31.4527 25.96 30.6301C25.9883 30.4213 26.0016 30.2107 26 30.0001V34.0001L31 38.0001L31.92 37.2601L33.14 38.4901Z" fill="#8000ff" id="id_263" data-darkreader-inline-fill="" style="--darkreader-inline-fill:#6600cc;"></path>
<path d="M49 41V61H13V41C13 38.8783 13.8429 36.8434 15.3431 35.3431C16.8434 33.8429 18.8783 33 21 33H26V34L31 38L31.92 37.26L36 34V33H41C43.1217 33 45.1566 33.8429 46.6569 35.3431C48.1571 36.8434 49 38.8783 49 41Z" fill="#8000ff" id="id_264" data-darkreader-inline-fill="" style="--darkreader-inline-fill:#6600cc;"></path>
<path d="M44 13C44.0001 15.1221 43.1586 17.1576 41.66 18.66C41.452 18.8666 41.2316 19.0603 41 19.24V14H36.83C35.0526 13.9986 33.3059 13.5369 31.76 12.66C30.2096 11.7879 28.9136 10.5263 28 9L26.94 9.15C25.2914 9.39009 23.7836 10.2132 22.69 11.47C22.0531 12.2057 21.5794 13.0679 21.3 14C21.0984 14.6474 20.9972 15.3219 21 16V19.24C19.3756 17.9424 18.3209 16.0627 18.06 14C18.0198 13.6682 17.9998 13.3342 18 13C18 10.3478 19.0536 7.8043 20.9289 5.92893C22.8043 4.05357 25.3478 3 28 3H34C36.6522 3 39.1957 4.05357 41.0711 5.92893C42.9464 7.8043 44 10.3478 44 13Z" fill="#8000ff" id="id_265" data-darkreader-inline-fill="" style="--darkreader-inline-fill:#6600cc;"></path>
<path d="M36 30.66V31.13C35.688 31.4406 35.3538 31.728 35 31.99C33.8668 32.8508 32.5599 33.4547 31.17 33.76C31.32 33.84 31.48 33.92 31.63 34C32.6397 34.4893 33.7251 34.8038 34.84 34.93L31.92 37.26L31 38L26 34V30.66C27.3556 31.4441 28.8767 31.8979 30.4403 31.9847C32.0039 32.0716 33.5659 31.7891 35 31.16C35.3458 31.0196 35.6802 30.8524 36 30.66V30.66Z" fill="#8000ff" id="id_266" data-darkreader-inline-fill="" style="--darkreader-inline-fill:#6600cc;"></path>
<path d="M26 30V30.66C25.9849 30.6525 25.9714 30.6424 25.96 30.63C25.9882 30.4212 26.0016 30.2107 26 30V30Z" fill="#F9E109" id="id_267" data-darkreader-inline-fill="" style="--darkreader-inline-fill:#fae421;"></path>
<path d="M24 13V19C24 21.6522 25.0536 24.1957 26.9289 26.0711C28.8043 27.9464 31.3478 29 34 29C35.9222 29.0051 37.8034 28.4452 39.41 27.39C38.2456 29.2109 36.5221 30.6052 34.4981 31.3636C32.4741 32.122 30.2588 32.2037 28.1844 31.5964C26.1101 30.9891 24.2886 29.7255 22.9933 27.9953C21.6979 26.265 20.9985 24.1614 21 22V16C20.9976 14.3354 21.598 12.7263 22.69 11.47C23.7836 10.2132 25.2914 9.39009 26.94 9.15L28 9C28.9136 10.5263 30.2096 11.7879 31.76 12.66C33.306 13.5369 35.0527 13.9986 36.83 14H41V16H36.83C35.0518 15.9997 33.3039 15.539 31.7566 14.6628C30.2092 13.7866 28.915 12.5247 28 11L26.94 11.15C25.901 11.2988 24.9093 11.6817 24.04 12.27C24.02 12.51 24 12.75 24 13Z" fill="#CFF09E" id="id_268" data-darkreader-inline-fill="" style="--darkreader-inline-fill:#394d0c;"></path>
<path d="M40 33L36 42L31 38L36 34V33H40Z" fill="#8000ff" id="id_269" data-darkreader-inline-fill="" style="--darkreader-inline-fill:#6600cc;"></path>
<path d="M22 33L26 42L31 38L26 34V33H22Z" fill="#8000ff" id="id_270" data-darkreader-inline-fill="" style="--darkreader-inline-fill:#6600cc;"></path>
<path d="M61 46.306L52.708 45.101L49 37.587V50L61 46.306Z" fill="#8000ff" id="id_271" data-darkreader-inline-fill="" style="--darkreader-inline-fill:#6600cc;"></path>
<path d="M37 46.306L43 52.154L41.584 60.413L49 50L37 46.306Z" fill="#8000ff" id="id_272" data-darkreader-inline-fill="" style="--darkreader-inline-fill:#6600cc;"></path>
<path d="M61 46.306L49 50L56.416 60.413L55 52.154L61 46.306Z" fill="#8000ff" id="id_273" data-darkreader-inline-fill="" style="--darkreader-inline-fill:#6600cc;"></path>
<path d="M49 37.587L45.292 45.101L37 46.306L49 50V37.587Z" fill="#8000ff" id="id_274" data-darkreader-inline-fill="" style="--darkreader-inline-fill:#6600cc;"></path>
<path d="M41.584 60.413L49 56.514L56.416 60.413L49 50L41.584 60.413Z" fill="#8000ff" id="id_275" data-darkreader-inline-fill="" style="--darkreader-inline-fill:#6600cc;"></path>
<path d="M49 16H59V30H49C48.4696 30 47.9609 29.7893 47.5858 29.4142C47.2107 29.0391 47 28.5304 47 28V18C47 17.4696 47.2107 16.9609 47.5858 16.5858C47.9609 16.2107 48.4696 16 49 16Z" fill="#8000ff" id="id_276" data-darkreader-inline-fill="" style="--darkreader-inline-fill:#6600cc;"></path>
<path d="M55 20L53 19L51 20V16C51 15.7348 51.1054 15.4804 51.2929 15.2929C51.4804 15.1054 51.7348 15 52 15H54C54.2652 15 54.5196 15.1054 54.7071 15.2929C54.8946 15.4804 55 15.7348 55 16V20Z" fill="#8000ff" id="id_277" data-darkreader-inline-fill="" style="--darkreader-inline-fill:#8d1aff;"></path>
<path d="M20 45C19.7348 45 19.4804 45.1054 19.2929 45.2929C19.1054 45.4804 19 45.7348 19 46V61C19 61.2652 19.1054 61.5196 19.2929 61.7071C19.4804 61.8946 19.7348 62 20 62C20.2652 62 20.5196 61.8946 20.7071 61.7071C20.8946 61.5196 21 61.2652 21 61V46C21 45.7348 20.8946 45.4804 20.7071 45.2929C20.5196 45.1054 20.2652 45 20 45Z" fill="#3B8686" id="id_278" data-darkreader-inline-fill="" style="--darkreader-inline-fill:#2f6b6b;"></path>
<path d="M24.293 18.293C24.1109 18.4816 24.0101 18.7342 24.0123 18.9964C24.0146 19.2586 24.1198 19.5094 24.3052 19.6948C24.4906 19.8802 24.7414 19.9854 25.0036 19.9876C25.2658 19.9899 25.5184 19.8891 25.707 19.707C26.0503 19.3646 26.5152 19.1724 27 19.1724C27.4848 19.1724 27.9498 19.3646 28.293 19.707C28.4816 19.8891 28.7342 19.9899 28.9964 19.9876C29.2586 19.9854 29.5094 19.8802 29.6948 19.6948C29.8802 19.5094 29.9854 19.2586 29.9877 18.9964C29.99 18.7342 29.8892 18.4816 29.707 18.293C28.9886 17.5759 28.015 17.1732 27 17.1732C25.985 17.1732 25.0114 17.5759 24.293 18.293V18.293Z" fill="#8000ff" id="id_279" data-darkreader-inline-fill="" style="--darkreader-inline-fill:#8d1aff;"></path>
<path d="M32.293 18.293C32.1109 18.4816 32.0101 18.7342 32.0123 18.9964C32.0146 19.2586 32.1198 19.5094 32.3052 19.6948C32.4906 19.8802 32.7414 19.9854 33.0036 19.9876C33.2658 19.9899 33.5184 19.8891 33.707 19.707C34.0503 19.3646 34.5152 19.1724 35 19.1724C35.4848 19.1724 35.9498 19.3646 36.293 19.707C36.4816 19.8891 36.7342 19.9899 36.9964 19.9876C37.2586 19.9854 37.5094 19.8802 37.6948 19.6948C37.8802 19.5094 37.9854 19.2586 37.9877 18.9964C37.99 18.7342 37.8892 18.4816 37.707 18.293C36.9886 17.5759 36.015 17.1732 35 17.1732C33.985 17.1732 33.0114 17.5759 32.293 18.293V18.293Z" fill="#8000ff" id="id_280" data-darkreader-inline-fill="" style="--darkreader-inline-fill:#8d1aff;"></path>
<path d="M31.465 7.87802C32.452 8.87104 33.6262 9.65831 34.9196 10.1942C36.213 10.7301 37.5999 11.004 39 11C39.2652 11 39.5196 10.8947 39.7071 10.7071C39.8946 10.5196 40 10.2652 40 10C40 9.73481 39.8946 9.48045 39.7071 9.29292C39.5196 9.10538 39.2652 9.00002 39 9.00002C37.8625 9.00304 36.7357 8.78036 35.6848 8.34487C34.634 7.90939 33.6799 7.26976 32.878 6.46302L32.706 6.29202C32.6136 6.19665 32.5032 6.12063 32.3811 6.06841C32.259 6.01618 32.1278 5.98878 31.995 5.98782C31.8622 5.98686 31.7306 6.01235 31.6077 6.0628C31.4849 6.11326 31.3734 6.18766 31.2796 6.28169C31.1859 6.37571 31.1118 6.48746 31.0617 6.61042C31.0116 6.73339 30.9864 6.86509 30.9878 6.99787C30.9891 7.13064 31.0169 7.26182 31.0695 7.38374C31.122 7.50567 31.1984 7.61591 31.294 7.70802L31.465 7.87802Z" fill="#3B8686" id="id_281" data-darkreader-inline-fill="" style="--darkreader-inline-fill:#2f6b6b;"></path>
<path d="M61.951 46C61.8934 45.8225 61.7873 45.6646 61.6447 45.5443C61.5021 45.424 61.3287 45.3459 61.144 45.319L53.372 44.19L49.9 37.145C49.8012 36.9658 49.6493 36.8216 49.4653 36.732C49.2812 36.6425 49.074 36.6121 48.872 36.645C48.0956 35.2372 46.9556 34.0635 45.5709 33.2464C44.1863 32.4294 42.6077 31.999 41 32H37V31.208C38.5334 30.2101 39.7937 28.8454 40.6668 27.2376C41.5398 25.6298 41.9981 23.8296 42 22V19.684C42.9435 18.8448 43.6986 17.8153 44.2157 16.6632C44.7328 15.5112 45.0001 14.2627 45 13C44.9966 10.0837 43.8365 7.28778 41.7744 5.22563C39.7122 3.16347 36.9163 2.00344 34 2H28C25.0837 2.00344 22.2878 3.16347 20.2256 5.22563C18.1635 7.28778 17.0034 10.0837 17 13H15C14.7348 13 14.4804 13.1054 14.2929 13.2929C14.1054 13.4804 14 13.7348 14 14V16.928C13.765 17.019 13.529 17.118 13.3 17.223L11.227 15.151C11.0395 14.9635 10.7852 14.8582 10.52 14.8582C10.2548 14.8582 10.0005 14.9635 9.813 15.151L4.15 20.808C3.96253 20.9955 3.85721 21.2498 3.85721 21.515C3.85721 21.7802 3.96253 22.0345 4.15 22.222L6.223 24.294C6.117 24.529 6.023 24.765 5.928 25H3C2.73478 25 2.48043 25.1054 2.29289 25.2929C2.10536 25.4804 2 25.7348 2 26V34C2 34.2652 2.10536 34.5196 2.29289 34.7071C2.48043 34.8946 2.73478 35 3 35H5.928C6.019 35.235 6.117 35.471 6.223 35.706L4.15 37.778C3.96253 37.9655 3.85721 38.2198 3.85721 38.485C3.85721 38.7502 3.96253 39.0045 4.15 39.192L9.808 44.849C9.99553 45.0365 10.2498 45.1418 10.515 45.1418C10.7802 45.1418 11.0345 45.0365 11.222 44.849L12 44.071V61C12 61.2652 12.1054 61.5196 12.2929 61.7071C12.4804 61.8946 12.7348 62 13 62C13.2652 62 13.5196 61.8946 13.7071 61.7071C13.8946 61.5196 14 61.2652 14 61V41C14.0021 39.1441 14.7403 37.3649 16.0526 36.0526C17.3649 34.7403 19.1441 34.0021 21 34H21.35L25.086 42.406C25.1481 42.5459 25.2414 42.6696 25.3588 42.7677C25.4763 42.8658 25.6146 42.9357 25.7633 42.9719C25.912 43.0081 26.067 43.0098 26.2163 42.9767C26.3657 42.9436 26.5055 42.8766 26.625 42.781L30 40.081V60C30 60.2652 30.1054 60.5196 30.2929 60.7071C30.4804 60.8946 30.7348 61 31 61C31.2652 61 31.5196 60.8946 31.7071 60.7071C31.8946 60.5196 32 60.2652 32 60V40.081L35.375 42.781C35.4945 42.8766 35.6343 42.9436 35.7836 42.9767C35.933 43.0098 36.088 43.0081 36.2367 42.9719C36.3854 42.9357 36.5237 42.8658 36.6412 42.7677C36.7586 42.6696 36.8519 42.5459 36.914 42.406L40.65 34H41C42.3974 34.0024 43.7619 34.4241 44.9168 35.2108C46.0718 35.9974 46.964 37.1126 47.478 38.412L44.628 44.187L36.856 45.316C36.6713 45.3428 36.4978 45.4208 36.3551 45.5411C36.2124 45.6614 36.1062 45.8192 36.0486 45.9968C35.991 46.1743 35.9841 46.3644 36.0289 46.5456C36.0737 46.7267 36.1683 46.8918 36.302 47.022L41.926 52.5L40.6 60.244C40.5682 60.4279 40.5885 60.6171 40.6586 60.7901C40.7287 60.9631 40.8458 61.113 40.9967 61.2229C41.1475 61.3327 41.3262 61.3982 41.5123 61.4118C41.6985 61.4255 41.8847 61.3867 42.05 61.3L48 58.169V61C48 61.2652 48.1054 61.5196 48.2929 61.7071C48.4804 61.8946 48.7348 62 49 62C49.2652 62 49.5196 61.8946 49.7071 61.7071C49.8946 61.5196 50 61.2652 50 61V58.169L55.95 61.3C56.1153 61.3867 56.3015 61.4255 56.4877 61.4118C56.6738 61.3982 56.8525 61.3327 57.0033 61.2229C57.1542 61.113 57.2713 60.9631 57.3414 60.7901C57.4115 60.6171 57.4318 60.4279 57.4 60.244L56.074 52.5L61.7 47.022C61.8327 46.8918 61.9265 46.7272 61.9708 46.5467C62.0152 46.3662 62.0083 46.1768 61.951 46ZM35 33.52L31 36.72L27 33.52V32.236C29.5694 33.2547 32.4306 33.2547 35 32.236V33.52ZM40 22C40 24.3869 39.0518 26.6761 37.364 28.364C35.6761 30.0518 33.3869 31 31 31C28.6131 31 26.3239 30.0518 24.636 28.364C22.9482 26.6761 22 24.3869 22 22V16C22.0061 14.5771 22.5221 13.2035 23.4543 12.1286C24.3866 11.0536 25.6733 10.3484 27.081 10.141L27.506 10.081C28.5472 11.5934 29.9394 12.8309 31.5634 13.6876C33.1874 14.5442 34.9949 14.9946 36.831 15H40V22ZM28 4H34C36.3861 4.00265 38.6738 4.95171 40.361 6.63896C42.0483 8.32622 42.9974 10.6139 43 13C43 14.2667 42.6542 15.5093 42 16.594V14C42 13.7348 41.8946 13.4804 41.7071 13.2929C41.5196 13.1054 41.2652 13 41 13H36.831C35.2261 12.9953 33.6494 12.5775 32.2528 11.7867C30.8561 10.9959 29.6867 9.85886 28.857 8.485C28.7556 8.31615 28.6066 8.181 28.4287 8.09649C28.2508 8.01199 28.0519 7.9819 27.857 8.01L26.797 8.162C24.9138 8.43929 23.1923 9.3826 21.9452 10.8207C20.6981 12.2589 20.0079 14.0965 20 16V16.594C19.3458 15.5093 19 14.2667 19 13C19.0026 10.6139 19.9517 8.32622 21.639 6.63896C23.3262 4.95171 25.6139 4.00265 28 4V4ZM10.515 42.728L6.271 38.485L8.139 36.619C8.28843 36.4693 8.38655 36.2761 8.41926 36.0671C8.45196 35.8581 8.41756 35.6442 8.321 35.456C8.02861 34.8892 7.7828 34.2996 7.586 33.693C7.52104 33.4916 7.39388 33.316 7.22282 33.1915C7.05175 33.067 6.84559 32.9999 6.634 33H4V27H6.634C6.84559 27.0001 7.05175 26.933 7.22282 26.8085C7.39388 26.684 7.52104 26.5084 7.586 26.307C7.7828 25.7004 8.02861 25.1108 8.321 24.544C8.41756 24.3558 8.45196 24.1419 8.41926 23.9329C8.38655 23.7239 8.28843 23.5307 8.139 23.381L6.271 21.515L10.515 17.272L12.382 19.139C12.5317 19.2884 12.7249 19.3866 12.9339 19.4193C13.1429 19.452 13.3568 19.4176 13.545 19.321C14.112 19.0289 14.7016 18.7828 15.308 18.585C15.509 18.5199 15.6843 18.3928 15.8086 18.222C15.9329 18.0511 15.9999 17.8453 16 17.634V15H17.224C17.6404 16.8118 18.6106 18.4489 20 19.684V22C20 22.026 20 22.05 20 22.076C18.3171 21.8606 16.6093 22.1869 15.1243 23.0076C13.6394 23.8282 12.4544 25.1005 11.7412 26.6399C11.028 28.1794 10.8237 29.906 11.1579 31.5694C11.4922 33.2328 12.3475 34.7465 13.6 35.891C12.5571 37.3905 11.9987 39.1735 12 41V41.243L10.515 42.728ZM14.915 34.385C13.9411 33.5011 13.2865 32.3202 13.053 31.0259C12.8195 29.7315 13.0202 28.3963 13.6238 27.2278C14.2275 26.0593 15.2002 25.123 16.3909 24.5644C17.5816 24.0058 18.9235 23.8563 20.208 24.139C20.4962 25.5769 21.0685 26.9428 21.8913 28.1566C22.7142 29.3705 23.771 30.4079 25 31.208V32H21C18.7449 32.0005 16.5731 32.8523 14.919 34.385H14.915ZM26.388 40.41L23.539 34H25C24.9999 34.15 25.0336 34.298 25.0985 34.4332C25.1634 34.5684 25.2579 34.6873 25.375 34.781L29.4 38L26.388 40.41ZM35.612 40.41L32.6 38L36.624 34.781C36.7413 34.6874 36.8359 34.5686 36.901 34.4334C36.9661 34.2982 36.9999 34.15 37 34H38.461L35.612 40.41ZM49 55.514C48.8378 55.5141 48.678 55.5532 48.534 55.628L44.834 57.575L49 51.724L53.167 57.575L49.467 55.628C49.3227 55.553 49.1626 55.5139 49 55.514V55.514ZM52.564 46.091L56.464 46.657L50 48.646V41.873L51.812 45.543C51.8835 45.6884 51.9894 45.8143 52.1204 45.9098C52.2514 46.0053 52.4036 46.0674 52.564 46.091ZM45.436 46.091C45.5964 46.0674 45.7486 46.0053 45.8796 45.9098C46.0106 45.8143 46.1165 45.6884 46.188 45.543L48 41.873V48.646L41.539 46.657L45.436 46.091ZM40.663 48.479L47.382 50.548L43.309 56.266L43.985 52.323C44.0125 52.1633 44.0007 51.9993 43.9507 51.8451C43.9007 51.6909 43.814 51.5512 43.698 51.438L40.663 48.479ZM54.015 52.323L54.691 56.266L50.618 50.548L57.337 48.479L54.3 51.438C54.1844 51.5514 54.098 51.6912 54.0484 51.8454C53.9987 51.9995 53.9873 52.1634 54.015 52.323V52.323Z" fill="#3B8686" id="id_282" data-darkreader-inline-fill="" style="--darkreader-inline-fill:#2f6b6b;"></path>
<path d="M49 31H59C59.2652 31 59.5196 30.8946 59.7071 30.7071C59.8946 30.5196 60 30.2652 60 30V16C60 15.7348 59.8946 15.4804 59.7071 15.2929C59.5196 15.1054 59.2652 15 59 15H55.722C55.5479 14.697 55.2971 14.445 54.9948 14.2695C54.6926 14.094 54.3495 14.0011 54 14H52C51.6505 14.0011 51.3074 14.094 51.0052 14.2695C50.7029 14.445 50.4521 14.697 50.278 15H49C48.2044 15 47.4413 15.3161 46.8787 15.8787C46.3161 16.4413 46 17.2044 46 18V28C46 28.7956 46.3161 29.5587 46.8787 30.1213C47.4413 30.6839 48.2044 31 49 31V31ZM54 16V18.382L53.447 18.105C53.3082 18.0356 53.1552 17.9995 53 17.9995C52.8448 17.9995 52.6918 18.0356 52.553 18.105L52 18.382V16H54ZM48 18C48 17.7348 48.1054 17.4804 48.2929 17.2929C48.4804 17.1054 48.7348 17 49 17H50V20C49.9999 20.1705 50.0434 20.3381 50.1264 20.4871C50.2093 20.636 50.329 20.7613 50.474 20.8509C50.619 20.9406 50.7845 20.9917 50.9548 20.9994C51.1251 21.0072 51.2945 20.9712 51.447 20.895L53 20.118L54.553 20.895C54.7055 20.9712 54.8749 21.0072 55.0452 20.9994C55.2155 20.9917 55.381 20.9406 55.526 20.8509C55.671 20.7613 55.7907 20.636 55.8736 20.4871C55.9566 20.3381 56.0001 20.1705 56 20V17H58V29H49C48.7348 29 48.4804 28.8946 48.2929 28.7071C48.1054 28.5196 48 28.2652 48 28V18Z" fill="#3B8686" id="id_283" data-darkreader-inline-fill="" style="--darkreader-inline-fill:#2f6b6b;"></path>
<path d="M51 26H54C54.2652 26 54.5196 25.8946 54.7071 25.7071C54.8946 25.5196 55 25.2652 55 25C55 24.7348 54.8946 24.4804 54.7071 24.2929C54.5196 24.1054 54.2652 24 54 24H51C50.7348 24 50.4804 24.1054 50.2929 24.2929C50.1054 24.4804 50 24.7348 50 25C50 25.2652 50.1054 25.5196 50.2929 25.7071C50.4804 25.8946 50.7348 26 51 26Z" fill="#3B8686" id="id_284" data-darkreader-inline-fill="" style="--darkreader-inline-fill:#7ec6c6;"></path>
</svg>